<svg width="108" height="108" viewBox="0 0 108 108" fill="none" xmlns="http://www.w3.org/2000/svg">
<rect width="108" height="108" rx="15" fill="white"/>
<path d="M9 76H99V86C99 94.2843 92.2843 101 84 101H24C15.7157 101 9 94.2843 9 86V76Z" fill="#BB0101"/>
<path d="M24 11.5H84C92.0081 11.5 98.5 17.9919 98.5 26V75.5H9.5V26C9.5 17.9919 15.9919 11.5 24 11.5Z" stroke="#BB0101"/>
<path d="M24 22C24 19.2386 26.2386 17 29 17H66V34H84V73H24V22Z" fill="#BB0101"/>
<path d="M65.9357 34L65.9357 17L84 34L65.9357 34Z" fill="#BB0101" fill-opacity="0.4"/>
<path d="M31.125 57V39.5455H38.6591C39.9545 39.5455 41.0881 39.8011 42.0597 40.3125C43.0313 40.8239 43.7869 41.5426 44.3267 42.4688C44.8665 43.3949 45.1364 44.4773 45.1364 45.7159C45.1364 46.9659 44.858 48.0483 44.3011 48.9631C43.75 49.8778 42.9744 50.5824 41.9744 51.0767C40.9801 51.571 39.8182 51.8182 38.4886 51.8182H33.9886V48.1364H37.5341C38.0909 48.1364 38.5653 48.0398 38.9574 47.8466C39.3551 47.6477 39.6591 47.3665 39.8693 47.0028C40.0852 46.6392 40.1932 46.2102 40.1932 45.7159C40.1932 45.2159 40.0852 44.7898 39.8693 44.4375C39.6591 44.0795 39.3551 43.8068 38.9574 43.6193C38.5653 43.4261 38.0909 43.3295 37.5341 43.3295H35.8636V57H31.125ZM53.5909 57H46.875V39.5455H53.5227C55.3182 39.5455 56.8693 39.8949 58.1761 40.5938C59.4886 41.2869 60.5 42.2869 61.2102 43.5938C61.9261 44.8949 62.2841 46.4545 62.2841 48.2727C62.2841 50.0909 61.929 51.6534 61.2188 52.9602C60.5085 54.2614 59.5028 55.2614 58.2017 55.9602C56.9006 56.6534 55.3636 57 53.5909 57ZM51.6136 52.9773H53.4205C54.2841 52.9773 55.0199 52.8381 55.6278 52.5597C56.2415 52.2812 56.7074 51.8011 57.0256 51.1193C57.3494 50.4375 57.5114 49.4886 57.5114 48.2727C57.5114 47.0568 57.3466 46.108 57.017 45.4261C56.6932 44.7443 56.2159 44.2642 55.5852 43.9858C54.9602 43.7074 54.1932 43.5682 53.2841 43.5682H51.6136V52.9773ZM64.4766 57V39.5455H76.7493V43.3636H69.2152V46.3636H75.9993V50.1818H69.2152V57H64.4766Z" fill="white"/>
<path d="M41.0739 83.0909V85.3636H34.3409V83.0909H41.0739ZM35.8821 94V82.3026C35.8821 81.5118 36.036 80.8561 36.3438 80.3352C36.6562 79.8144 37.0824 79.4238 37.6222 79.1634C38.1619 78.9029 38.7751 78.7727 39.4616 78.7727C39.9257 78.7727 40.3494 78.8082 40.733 78.8793C41.1212 78.9503 41.41 79.0142 41.5994 79.071L41.0597 81.3438C40.9413 81.3059 40.7945 81.2704 40.6193 81.2372C40.4489 81.2041 40.2737 81.1875 40.0938 81.1875C39.6487 81.1875 39.3385 81.2917 39.1634 81.5C38.9882 81.7036 38.9006 81.9901 38.9006 82.3594V94H35.8821ZM42.9222 94V83.0909H45.8555V84.9943H45.9691C46.168 84.3172 46.5018 83.8059 46.9705 83.4602C47.4393 83.1098 47.979 82.9347 48.5898 82.9347C48.7414 82.9347 48.9047 82.9441 49.0799 82.9631C49.2551 82.982 49.409 83.008 49.5415 83.0412V85.7259C49.3995 85.6832 49.203 85.6454 48.9521 85.6122C48.7011 85.5791 48.4715 85.5625 48.2631 85.5625C47.8181 85.5625 47.4203 85.6596 47.07 85.8537C46.7243 86.0431 46.4497 86.3082 46.2461 86.6491C46.0472 86.9901 45.9478 87.383 45.9478 87.8281V94H42.9222ZM55.5696 94.2131C54.4474 94.2131 53.4815 93.9858 52.6719 93.5312C51.867 93.072 51.2467 92.4233 50.8111 91.5852C50.3755 90.7424 50.1577 89.7457 50.1577 88.5952C50.1577 87.473 50.3755 86.4882 50.8111 85.6406C51.2467 84.7931 51.8598 84.1326 52.6506 83.6591C53.446 83.1856 54.3788 82.9489 55.4489 82.9489C56.1686 82.9489 56.8385 83.0649 57.4588 83.2969C58.0838 83.5241 58.6283 83.8674 59.0923 84.3267C59.5611 84.786 59.9257 85.3636 60.1861 86.0597C60.4465 86.7509 60.5767 87.5606 60.5767 88.4886V89.3196H51.3651V87.4446H57.7287C57.7287 87.009 57.634 86.6231 57.4446 86.2869C57.2552 85.9508 56.9924 85.688 56.6562 85.4986C56.3248 85.3045 55.9389 85.2074 55.4986 85.2074C55.0393 85.2074 54.6321 85.3139 54.277 85.527C53.9266 85.7353 53.652 86.017 53.4531 86.3722C53.2543 86.7225 53.1525 87.1132 53.1477 87.544V89.3267C53.1477 89.8665 53.2472 90.3329 53.446 90.7259C53.6496 91.1188 53.9361 91.4219 54.3054 91.6349C54.6747 91.848 55.1127 91.9545 55.6193 91.9545C55.9555 91.9545 56.2633 91.9072 56.5426 91.8125C56.822 91.7178 57.0611 91.5758 57.2599 91.3864C57.4588 91.197 57.6103 90.965 57.7145 90.6903L60.5128 90.875C60.3707 91.5473 60.0795 92.1345 59.6392 92.6364C59.2036 93.1335 58.6402 93.5218 57.9489 93.8011C57.2623 94.0758 56.4692 94.2131 55.5696 94.2131ZM67.5227 94.2131C66.4006 94.2131 65.4347 93.9858 64.625 93.5312C63.8201 93.072 63.1998 92.4233 62.7642 91.5852C62.3286 90.7424 62.1108 89.7457 62.1108 88.5952C62.1108 87.473 62.3286 86.4882 62.7642 85.6406C63.1998 84.7931 63.813 84.1326 64.6037 83.6591C65.3991 83.1856 66.3319 82.9489 67.402 82.9489C68.1217 82.9489 68.7917 83.0649 69.4119 83.2969C70.0369 83.5241 70.5814 83.8674 71.0455 84.3267C71.5142 84.786 71.8788 85.3636 72.1392 86.0597C72.3996 86.7509 72.5298 87.5606 72.5298 88.4886V89.3196H63.3182V87.4446H69.6818C69.6818 87.009 69.5871 86.6231 69.3977 86.2869C69.2083 85.9508 68.9455 85.688 68.6094 85.4986C68.2779 85.3045 67.892 85.2074 67.4517 85.2074C66.9924 85.2074 66.5852 85.3139 66.2301 85.527C65.8797 85.7353 65.6051 86.017 65.4062 86.3722C65.2074 86.7225 65.1056 87.1132 65.1009 87.544V89.3267C65.1009 89.8665 65.2003 90.3329 65.3991 90.7259C65.6027 91.1188 65.8892 91.4219 66.2585 91.6349C66.6278 91.848 67.0658 91.9545 67.5724 91.9545C67.9086 91.9545 68.2164 91.9072 68.4957 91.8125C68.7751 91.7178 69.0142 91.5758 69.2131 91.3864C69.4119 91.197 69.5634 90.965 69.6676 90.6903L72.4659 90.875C72.3239 91.5473 72.0327 92.1345 71.5923 92.6364C71.1567 93.1335 70.5933 93.5218 69.902 93.8011C69.2154 94.0758 68.4223 94.2131 67.5227 94.2131Z" fill="white"/>
</svg>
