<svg width="1280" height="900" viewBox="0 0 1280 900" fill="none" xmlns="http://www.w3.org/2000/svg">
  <rect width="1280" height="900" rx="60" fill="#FFF8F4"/>
  <rect x="80" y="80" width="1120" height="740" rx="42" fill="white"/>
  <rect x="80" y="80" width="1120" height="740" rx="42" stroke="#F6D3CE" stroke-width="6"/>
  <circle cx="146" cy="138" r="10" fill="#FCA5A5"/>
  <circle cx="182" cy="138" r="10" fill="#FDBA74"/>
  <circle cx="218" cy="138" r="10" fill="#FDE68A"/>
  <rect x="118" y="190" width="282" height="520" rx="30" fill="#FDF1EE"/>
  <rect x="460" y="190" width="350" height="520" rx="30" fill="#FFF8F4"/>
  <rect x="870" y="190" width="292" height="520" rx="30" fill="#FFF8F4"/>
  <rect x="150" y="230" width="218" height="18" rx="9" fill="#E5B6AF"/>
  <rect x="150" y="280" width="218" height="94" rx="26" fill="white"/>
  <rect x="150" y="394" width="218" height="94" rx="26" fill="white"/>
  <rect x="150" y="508" width="218" height="94" rx="26" fill="white"/>
  <rect x="150" y="622" width="218" height="50" rx="25" fill="#B91C1C"/>
  <rect x="510" y="238" width="252" height="24" rx="12" fill="#B91C1C"/>
  <rect x="510" y="286" width="120" height="14" rx="7" fill="#E5B6AF"/>
  <rect x="510" y="336" width="250" height="16" rx="8" fill="#D7C7C4"/>
  <rect x="510" y="370" width="205" height="16" rx="8" fill="#D7C7C4"/>
  <rect x="510" y="404" width="228" height="16" rx="8" fill="#D7C7C4"/>
  <rect x="510" y="470" width="252" height="24" rx="12" fill="#B91C1C"/>
  <rect x="510" y="518" width="120" height="14" rx="7" fill="#E5B6AF"/>
  <rect x="510" y="568" width="250" height="16" rx="8" fill="#D7C7C4"/>
  <rect x="510" y="602" width="190" height="16" rx="8" fill="#D7C7C4"/>
  <rect x="930" y="238" width="172" height="22" rx="11" fill="#B91C1C"/>
  <rect x="930" y="292" width="170" height="150" rx="28" fill="white"/>
  <path d="M967 365L1010 326L1048 357L1096 314" stroke="#B91C1C" stroke-width="14" stroke-linecap="round" stroke-linejoin="round"/>
  <rect x="930" y="484" width="170" height="150" rx="28" fill="white"/>
  <circle cx="1016" cy="558" r="44" fill="#F8D7D1"/>
  <path d="M1002 558L1012 568L1034 546" stroke="#B91C1C" stroke-width="12" stroke-linecap="round" stroke-linejoin="round"/>
  <g filter="url(#filter0_d)">
    <rect x="364" y="132" width="352" height="100" rx="28" fill="white"/>
    <rect x="396" y="166" width="132" height="18" rx="9" fill="#B91C1C"/>
    <rect x="396" y="196" width="94" height="12" rx="6" fill="#D7C7C4"/>
    <rect x="570" y="156" width="106" height="44" rx="22" fill="#FFF3E8"/>
    <path d="M595 179H651" stroke="#B91C1C" stroke-width="10" stroke-linecap="round"/>
  </g>
  <g filter="url(#filter1_d)">
    <rect x="852" y="120" width="238" height="92" rx="28" fill="#B91C1C"/>
    <rect x="892" y="152" width="118" height="16" rx="8" fill="#FCEAEA"/>
    <rect x="892" y="180" width="72" height="12" rx="6" fill="#F8B4B4"/>
  </g>
  <defs>
    <filter id="filter0_d" x="324" y="100" width="432" height="180" filterUnits="userSpaceOnUse" color-interpolation-filters="sRGB">
      <feFlood flood-opacity="0" result="BackgroundImageFix"/>
      <feColorMatrix in="SourceAlpha" type="matrix" values="0 0 0 0 0 0 0 0 0 0 0 0 0 0 0 0 0 0 127 0" result="hardAlpha"/>
      <feOffset dy="8"/>
      <feGaussianBlur stdDeviation="20"/>
      <feComposite in2="hardAlpha" operator="out"/>
      <feColorMatrix type="matrix" values="0 0 0 0 0.807843 0 0 0 0 0.270588 0 0 0 0 0.25098 0 0 0 0.18 0"/>
      <feBlend mode="normal" in2="BackgroundImageFix" result="effect1_dropShadow"/>
      <feBlend mode="normal" in="SourceGraphic" in2="effect1_dropShadow" result="shape"/>
    </filter>
    <filter id="filter1_d" x="812" y="88" width="318" height="172" filterUnits="userSpaceOnUse" color-interpolation-filters="sRGB">
      <feFlood flood-opacity="0" result="BackgroundImageFix"/>
      <feColorMatrix in="SourceAlpha" type="matrix" values="0 0 0 0 0 0 0 0 0 0 0 0 0 0 0 0 0 0 127 0" result="hardAlpha"/>
      <feOffset dy="8"/>
      <feGaussianBlur stdDeviation="20"/>
      <feComposite in2="hardAlpha" operator="out"/>
      <feColorMatrix type="matrix" values="0 0 0 0 0.729412 0 0 0 0 0.109804 0 0 0 0 0.109804 0 0 0 0.2 0"/>
      <feBlend mode="normal" in2="BackgroundImageFix" result="effect1_dropShadow"/>
      <feBlend mode="normal" in="SourceGraphic" in2="effect1_dropShadow" result="shape"/>
    </filter>
  </defs>
</svg>
